<svg id="svg" version="1.1" xmlns="http://www.w3.org/2000/svg" xmlns:xlink="http://www.w3.org/1999/xlink" width="400" height="400" viewBox="0, 0, 400,400"><g id="svgg"><path id="path0" d="M109.862 129.871 C 109.532 130.201,109.513 267.307,109.843 268.167 C 110.091 268.815,137.743 269.181,139.367 268.557 C 139.937 268.338,140.000 264.915,140.000 233.931 C 140.000 197.875,139.994 198.000,141.801 198.000 C 142.601 198.000,146.289 200.738,147.200 202.007 C 147.310 202.160,148.570 203.249,150.000 204.427 C 151.430 205.604,152.658 206.704,152.730 206.872 C 152.801 207.040,154.331 208.389,156.130 209.870 C 157.928 211.351,159.580 212.767,159.800 213.016 C 160.020 213.266,161.730 214.781,163.600 216.384 C 167.176 219.450,172.539 224.183,173.589 225.200 C 173.929 225.530,175.556 226.913,177.204 228.273 C 178.852 229.633,181.053 231.523,182.095 232.473 C 183.137 233.423,184.757 234.863,185.695 235.673 C 186.633 236.483,188.136 237.833,189.036 238.673 C 189.935 239.513,191.279 240.650,192.021 241.200 C 192.763 241.750,194.342 243.145,195.529 244.300 C 197.504 246.221,200.000 247.226,200.000 246.100 C 200.000 245.934,201.470 244.539,203.267 243.000 C 205.064 241.460,206.820 239.930,207.168 239.600 C 207.517 239.270,209.242 237.758,211.001 236.240 C 212.760 234.722,215.460 232.362,217.000 230.996 C 221.141 227.322,224.565 224.349,228.600 220.923 C 230.580 219.242,232.380 217.646,232.600 217.377 C 232.820 217.108,234.620 215.512,236.600 213.830 C 238.580 212.148,241.289 209.798,242.620 208.606 C 243.950 207.415,245.731 205.890,246.577 205.218 C 247.422 204.546,248.314 203.755,248.557 203.459 C 248.801 203.163,250.394 201.724,252.098 200.260 C 258.047 195.152,257.600 192.450,257.600 233.520 C 257.600 259.680,257.714 267.954,258.080 268.320 C 258.818 269.058,286.933 269.004,287.548 268.263 C 288.346 267.301,288.190 130.236,287.390 130.067 C 286.715 129.924,284.555 131.565,280.375 135.395 C 278.931 136.718,276.513 138.880,275.001 140.200 C 270.586 144.054,267.886 146.419,266.600 147.556 C 263.827 150.009,259.733 153.540,258.847 154.243 C 258.322 154.660,257.410 155.450,256.820 156.000 C 256.230 156.550,254.683 157.900,253.383 159.000 C 252.083 160.100,249.935 162.005,248.610 163.233 C 247.284 164.461,245.120 166.356,243.800 167.445 C 242.480 168.534,240.860 169.939,240.200 170.567 C 239.540 171.195,237.920 172.594,236.600 173.677 C 235.280 174.759,233.300 176.494,232.200 177.530 C 231.100 178.567,229.120 180.310,227.800 181.403 C 226.480 182.496,225.220 183.588,225.000 183.830 C 224.631 184.235,218.471 189.623,217.281 190.582 C 216.995 190.812,216.455 191.287,216.081 191.639 C 215.706 191.990,213.870 193.604,212.000 195.225 C 210.130 196.846,208.510 198.271,208.400 198.392 C 208.290 198.512,207.212 199.419,206.004 200.405 C 204.796 201.392,203.222 202.778,202.506 203.485 C 199.240 206.708,195.408 205.523,190.600 199.804 C 190.380 199.542,189.030 198.371,187.600 197.202 C 186.170 196.033,184.730 194.760,184.400 194.372 C 184.070 193.985,182.538 192.617,180.997 191.334 C 178.196 189.002,176.028 187.132,174.815 186.000 C 174.461 185.670,173.008 184.412,171.586 183.205 C 168.563 180.638,166.931 179.202,164.538 177.000 C 162.457 175.085,162.261 174.915,159.085 172.273 C 157.718 171.135,155.934 169.574,155.121 168.802 C 154.307 168.031,152.867 166.738,151.921 165.929 C 150.974 165.120,149.529 163.839,148.709 163.083 C 147.889 162.328,146.629 161.255,145.909 160.700 C 145.189 160.145,144.150 159.298,143.600 158.817 C 142.176 157.573,137.841 153.720,135.442 151.567 C 134.319 150.559,132.140 148.681,130.600 147.393 C 129.060 146.105,126.990 144.299,126.000 143.379 C 125.010 142.458,123.480 141.101,122.600 140.361 C 121.720 139.622,119.560 137.744,117.800 136.188 C 112.275 131.305,110.133 129.600,109.862 129.871 " stroke="none" fill="#101010" fill-rule="evenodd"></path><path id="path1" d="M0.000 200.000 L 0.000 400.000 200.000 400.000 L 400.000 400.000 400.000 200.000 L 400.000 0.000 200.000 0.000 L 0.000 0.000 0.000 200.000 M289.503 198.566 C 289.602 265.672,289.572 269.146,288.895 269.982 C 288.248 270.782,270.308 271.277,258.129 270.832 C 255.894 270.750,256.001 272.518,255.994 235.271 C 255.990 216.258,255.831 200.753,255.636 200.445 C 255.360 200.009,254.864 200.272,253.342 201.657 C 252.274 202.630,250.505 204.140,249.410 205.013 C 248.316 205.886,246.336 207.633,245.010 208.895 C 243.685 210.158,242.477 211.193,242.327 211.195 C 242.176 211.198,241.169 212.055,240.088 213.100 C 239.007 214.145,237.159 215.810,235.982 216.800 C 233.947 218.510,230.498 221.543,227.734 224.051 C 227.038 224.683,226.362 225.200,226.232 225.200 C 226.102 225.200,224.872 226.301,223.498 227.647 C 222.124 228.993,220.379 230.568,219.621 231.147 C 218.862 231.726,217.782 232.629,217.221 233.154 C 216.659 233.679,215.120 235.013,213.800 236.118 C 212.480 237.223,211.220 238.335,211.000 238.588 C 210.780 238.842,209.436 240.028,208.014 241.224 C 206.592 242.421,205.139 243.670,204.785 244.000 C 199.247 249.169,198.579 249.371,195.645 246.756 C 194.630 245.852,192.540 243.989,191.000 242.615 C 189.460 241.241,186.760 238.885,185.000 237.378 C 178.533 231.843,176.170 229.769,174.770 228.400 C 173.982 227.630,172.877 226.640,172.313 226.200 C 171.061 225.223,165.905 220.739,157.963 213.721 C 148.378 205.252,142.952 200.805,142.200 200.802 C 141.405 200.800,141.401 201.033,141.499 234.700 C 141.577 261.564,141.492 268.808,141.087 269.600 L 140.577 270.600 124.954 270.705 C 109.489 270.808,109.325 270.801,108.566 269.963 C 107.635 268.934,107.125 130.928,108.043 128.700 C 108.894 126.636,110.308 127.159,114.902 131.237 C 117.156 133.238,120.248 135.983,121.774 137.337 C 123.299 138.692,125.117 140.254,125.813 140.808 C 126.509 141.362,128.501 143.096,130.239 144.662 C 134.738 148.712,139.698 153.045,142.761 155.600 C 144.212 156.810,145.923 158.331,146.565 158.981 C 147.206 159.630,148.827 161.076,150.166 162.192 C 153.305 164.810,155.129 166.398,156.167 167.416 C 156.625 167.865,158.385 169.366,160.079 170.752 C 161.772 172.138,163.212 173.400,163.279 173.555 C 163.345 173.711,164.599 174.849,166.065 176.085 C 169.111 178.652,171.057 180.334,171.985 181.200 C 172.339 181.530,173.792 182.782,175.214 183.982 C 176.636 185.181,178.884 187.161,180.210 188.382 C 181.535 189.602,183.681 191.500,184.978 192.600 C 186.275 193.700,187.621 194.891,187.968 195.246 C 188.316 195.602,190.220 197.236,192.200 198.878 C 194.180 200.520,196.250 202.341,196.800 202.925 C 198.167 204.376,199.092 204.255,201.200 202.351 C 204.442 199.421,213.625 191.418,214.683 190.600 C 215.252 190.160,217.008 188.592,218.585 187.115 C 220.161 185.639,222.160 183.869,223.026 183.183 C 223.892 182.497,225.410 181.184,226.400 180.266 C 227.390 179.347,228.887 178.084,229.726 177.458 C 230.565 176.832,232.026 175.573,232.973 174.660 C 234.878 172.822,236.091 171.740,240.210 168.206 C 241.744 166.889,243.090 165.717,243.200 165.600 C 243.310 165.484,244.380 164.581,245.579 163.595 C 246.777 162.608,248.136 161.440,248.598 161.000 C 249.634 160.014,254.836 155.398,256.985 153.557 C 257.856 152.811,258.857 151.930,259.208 151.600 C 260.694 150.205,264.836 146.669,266.550 145.334 C 267.568 144.542,268.400 143.757,268.400 143.592 C 268.400 143.426,269.705 142.253,271.300 140.986 C 272.895 139.718,274.380 138.466,274.600 138.203 C 274.820 137.940,276.530 136.418,278.400 134.820 C 280.270 133.222,282.771 130.989,283.958 129.857 C 286.614 127.325,287.950 126.665,288.800 127.464 C 289.328 127.961,289.412 136.474,289.503 198.566 " stroke="none" fill="#fbfbfb" fill-rule="evenodd"></path><path id="path2" d="M109.214 129.574 C 108.605 130.711,108.639 267.210,109.249 268.547 C 109.496 269.089,110.081 269.635,110.549 269.761 C 111.689 270.067,137.174 270.065,138.704 269.759 C 140.867 269.327,140.818 270.170,140.791 233.501 C 140.774 210.966,140.903 199.337,141.172 199.068 C 141.784 198.456,143.008 199.193,146.400 202.215 C 148.050 203.684,151.179 206.442,153.354 208.344 C 158.229 212.605,163.763 217.452,169.236 222.253 C 171.526 224.263,178.527 230.383,184.792 235.853 C 191.058 241.324,196.503 246.115,196.892 246.500 C 198.230 247.823,200.456 246.969,203.000 244.158 C 203.389 243.729,209.722 238.192,214.326 234.256 C 218.207 230.938,223.605 226.254,224.932 225.052 C 226.186 223.916,238.368 213.264,242.833 209.400 C 244.104 208.300,246.981 205.780,249.226 203.800 C 255.661 198.125,255.428 198.285,256.168 199.025 C 256.734 199.591,256.800 203.223,256.800 233.953 C 256.800 267.915,256.808 268.258,257.616 269.125 C 258.840 270.439,286.692 270.508,288.000 269.200 C 288.794 268.406,289.340 131.472,288.557 129.433 C 288.123 128.302,286.642 128.776,284.575 130.708 C 283.461 131.749,281.211 133.767,279.575 135.192 C 277.939 136.618,276.510 137.883,276.400 138.003 C 276.290 138.123,275.030 139.203,273.600 140.403 C 272.170 141.603,269.918 143.578,268.595 144.792 C 267.273 146.007,263.776 149.070,260.826 151.600 C 257.875 154.130,254.268 157.280,252.810 158.600 C 249.549 161.552,246.103 164.557,239.825 169.925 C 237.171 172.194,234.460 174.548,233.800 175.157 C 233.140 175.765,229.540 178.930,225.800 182.190 C 222.060 185.450,218.910 188.232,218.800 188.372 C 218.690 188.512,217.340 189.685,215.800 190.978 C 214.260 192.271,211.830 194.366,210.400 195.634 C 200.709 204.221,199.972 204.800,198.730 204.800 C 197.418 204.800,194.972 202.895,186.612 195.358 C 184.390 193.355,181.306 190.655,179.758 189.358 C 177.221 187.232,174.074 184.473,168.822 179.768 C 167.820 178.870,164.840 176.282,162.200 174.016 C 159.560 171.750,156.050 168.685,154.400 167.204 C 152.750 165.724,149.240 162.649,146.600 160.372 C 143.960 158.094,139.443 154.154,136.562 151.615 C 133.681 149.077,129.649 145.560,127.601 143.800 C 125.553 142.040,123.678 140.420,123.433 140.200 C 110.869 128.901,109.944 128.209,109.214 129.574 M117.800 136.188 C 119.560 137.744,121.720 139.622,122.600 140.361 C 123.480 141.101,125.010 142.458,126.000 143.379 C 126.990 144.299,129.060 146.105,130.600 147.393 C 132.140 148.681,134.319 150.559,135.442 151.567 C 137.841 153.720,142.176 157.573,143.600 158.817 C 144.150 159.298,145.189 160.145,145.909 160.700 C 146.629 161.255,147.889 162.328,148.709 163.083 C 149.529 163.839,150.974 165.120,151.921 165.929 C 152.867 166.738,154.307 168.031,155.121 168.802 C 155.934 169.574,157.718 171.135,159.085 172.273 C 162.261 174.915,162.457 175.085,164.538 177.000 C 166.931 179.202,168.563 180.638,171.586 183.205 C 173.008 184.412,174.461 185.670,174.815 186.000 C 176.028 187.132,178.196 189.002,180.997 191.334 C 182.538 192.617,184.070 193.985,184.400 194.372 C 184.730 194.760,186.170 196.033,187.600 197.202 C 189.030 198.371,190.380 199.542,190.600 199.804 C 195.408 205.523,199.240 206.708,202.506 203.485 C 203.222 202.778,204.796 201.392,206.004 200.405 C 207.212 199.419,208.290 198.512,208.400 198.392 C 208.510 198.271,210.130 196.846,212.000 195.225 C 213.870 193.604,215.706 191.990,216.081 191.639 C 216.455 191.287,216.995 190.812,217.281 190.582 C 218.471 189.623,224.631 184.235,225.000 183.830 C 225.220 183.588,226.480 182.496,227.800 181.403 C 229.120 180.310,231.100 178.567,232.200 177.530 C 233.300 176.494,235.280 174.759,236.600 173.677 C 237.920 172.594,239.540 171.195,240.200 170.567 C 240.860 169.939,242.480 168.534,243.800 167.445 C 245.120 166.356,247.284 164.461,248.610 163.233 C 249.935 162.005,252.083 160.100,253.383 159.000 C 254.683 157.900,256.230 156.550,256.820 156.000 C 257.410 155.450,258.322 154.660,258.847 154.243 C 259.733 153.540,263.827 150.009,266.600 147.556 C 267.886 146.419,270.586 144.054,275.001 140.200 C 276.513 138.880,278.931 136.718,280.375 135.395 C 284.555 131.565,286.715 129.924,287.390 130.067 C 288.190 130.236,288.346 267.301,287.548 268.263 C 286.933 269.004,258.818 269.058,258.080 268.320 C 257.714 267.954,257.600 259.680,257.600 233.520 C 257.600 192.450,258.047 195.152,252.098 200.260 C 250.394 201.724,248.801 203.163,248.557 203.459 C 248.314 203.755,247.422 204.546,246.577 205.218 C 245.731 205.890,243.950 207.415,242.620 208.606 C 241.289 209.798,238.580 212.148,236.600 213.830 C 234.620 215.512,232.820 217.108,232.600 217.377 C 232.380 217.646,230.580 219.242,228.600 220.923 C 224.565 224.349,221.141 227.322,217.000 230.996 C 215.460 232.362,212.760 234.722,211.001 236.240 C 209.242 237.758,207.517 239.270,207.168 239.600 C 206.820 239.930,205.064 241.460,203.267 243.000 C 201.470 244.539,200.000 245.934,200.000 246.100 C 200.000 247.226,197.504 246.221,195.529 244.300 C 194.342 243.145,192.763 241.750,192.021 241.200 C 191.279 240.650,189.935 239.513,189.036 238.673 C 188.136 237.833,186.633 236.483,185.695 235.673 C 184.757 234.863,183.137 233.423,182.095 232.473 C 181.053 231.523,178.852 229.633,177.204 228.273 C 175.556 226.913,173.929 225.530,173.589 225.200 C 172.539 224.183,167.176 219.450,163.600 216.384 C 161.730 214.781,160.020 213.266,159.800 213.016 C 159.580 212.767,157.928 211.351,156.130 209.870 C 154.331 208.389,152.801 207.040,152.730 206.872 C 152.658 206.704,151.430 205.604,150.000 204.427 C 148.570 203.249,147.310 202.160,147.200 202.007 C 146.289 200.738,142.601 198.000,141.801 198.000 C 139.994 198.000,140.000 197.875,140.000 233.931 C 140.000 264.915,139.937 268.338,139.367 268.557 C 137.743 269.181,110.091 268.815,109.843 268.167 C 109.513 267.307,109.532 130.201,109.862 129.871 C 110.133 129.600,112.275 131.305,117.800 136.188 " stroke="none" fill="#6c6c6c" fill-rule="evenodd"></path><path id="path3" d="M287.158 127.350 C 286.585 127.597,285.145 128.726,283.958 129.857 C 282.771 130.989,280.270 133.222,278.400 134.820 C 276.530 136.418,274.820 137.940,274.600 138.203 C 274.380 138.466,272.895 139.718,271.300 140.986 C 269.705 142.253,268.400 143.426,268.400 143.592 C 268.400 143.757,267.568 144.542,266.550 145.334 C 264.836 146.669,260.694 150.205,259.208 151.600 C 258.857 151.930,257.856 152.811,256.985 153.557 C 254.836 155.398,249.634 160.014,248.598 161.000 C 248.136 161.440,246.777 162.608,245.579 163.595 C 244.380 164.581,243.310 165.484,243.200 165.600 C 243.090 165.717,241.744 166.889,240.210 168.206 C 236.091 171.740,234.878 172.822,232.973 174.660 C 232.026 175.573,230.565 176.832,229.726 177.458 C 228.887 178.084,227.390 179.347,226.400 180.266 C 225.410 181.184,223.892 182.497,223.026 183.183 C 222.160 183.869,220.161 185.639,218.585 187.115 C 217.008 188.592,215.252 190.160,214.683 190.600 C 213.625 191.418,204.442 199.421,201.200 202.351 C 199.092 204.255,198.167 204.376,196.800 202.925 C 196.250 202.341,194.180 200.520,192.200 198.878 C 190.220 197.236,188.316 195.602,187.968 195.246 C 187.621 194.891,186.275 193.700,184.978 192.600 C 183.681 191.500,181.535 189.602,180.210 188.382 C 178.884 187.161,176.636 185.181,175.214 183.982 C 173.792 182.782,172.339 181.530,171.985 181.200 C 171.057 180.334,169.111 178.652,166.065 176.085 C 164.599 174.849,163.345 173.711,163.279 173.555 C 163.212 173.400,161.772 172.138,160.079 170.752 C 158.385 169.366,156.625 167.865,156.167 167.416 C 155.129 166.398,153.305 164.810,150.166 162.192 C 148.827 161.076,147.206 159.630,146.565 158.981 C 145.923 158.331,144.212 156.810,142.761 155.600 C 139.698 153.045,134.738 148.712,130.239 144.662 C 128.501 143.096,126.509 141.362,125.813 140.808 C 125.117 140.254,123.299 138.692,121.774 137.337 C 120.248 135.983,117.156 133.238,114.902 131.237 C 110.308 127.159,108.894 126.636,108.043 128.700 C 107.125 130.928,107.635 268.934,108.566 269.963 C 109.325 270.801,109.489 270.808,124.954 270.705 L 140.577 270.600 141.087 269.600 C 141.492 268.808,141.577 261.564,141.499 234.700 C 141.401 201.033,141.405 200.800,142.200 200.802 C 142.952 200.805,148.378 205.252,157.963 213.721 C 165.905 220.739,171.061 225.223,172.313 226.200 C 172.877 226.640,173.982 227.630,174.770 228.400 C 176.170 229.769,178.533 231.843,185.000 237.378 C 186.760 238.885,189.460 241.241,191.000 242.615 C 192.540 243.989,194.630 245.852,195.645 246.756 C 198.579 249.371,199.247 249.169,204.785 244.000 C 205.139 243.670,206.592 242.421,208.014 241.224 C 209.436 240.028,210.780 238.842,211.000 238.588 C 211.220 238.335,212.480 237.223,213.800 236.118 C 215.120 235.013,216.659 233.679,217.221 233.154 C 217.782 232.629,218.862 231.726,219.621 231.147 C 220.379 230.568,222.124 228.993,223.498 227.647 C 224.872 226.301,226.102 225.200,226.232 225.200 C 226.362 225.200,227.038 224.683,227.734 224.051 C 230.498 221.543,233.947 218.510,235.982 216.800 C 237.159 215.810,239.007 214.145,240.088 213.100 C 241.169 212.055,242.176 211.198,242.327 211.195 C 242.477 211.193,243.685 210.158,245.010 208.895 C 246.336 207.633,248.316 205.886,249.410 205.013 C 250.505 204.140,252.274 202.630,253.342 201.657 C 254.864 200.272,255.360 200.009,255.636 200.445 C 255.831 200.753,255.990 216.258,255.994 235.271 C 256.001 272.518,255.894 270.750,258.129 270.832 C 270.308 271.277,288.248 270.782,288.895 269.982 C 289.572 269.146,289.602 265.672,289.503 198.566 C 289.390 121.332,289.554 126.314,287.158 127.350 M113.290 130.880 C 115.734 132.962,121.150 137.746,123.614 140.000 C 123.975 140.330,125.952 142.040,128.007 143.800 C 130.062 145.560,133.376 148.443,135.372 150.206 C 137.367 151.970,139.540 153.882,140.200 154.456 C 143.180 157.047,155.121 167.472,156.200 168.425 C 156.860 169.008,160.550 172.228,164.400 175.582 C 168.250 178.936,171.940 182.157,172.600 182.740 C 173.260 183.323,175.420 185.212,177.400 186.938 C 179.380 188.664,182.800 191.665,185.000 193.606 C 200.252 207.066,198.078 206.317,204.581 200.347 C 205.692 199.328,207.230 197.986,208.000 197.367 C 208.770 196.747,210.307 195.421,211.416 194.420 C 212.524 193.419,215.944 190.412,219.016 187.737 C 222.087 185.062,226.580 181.136,229.000 179.012 C 231.420 176.888,236.437 172.507,240.149 169.275 C 250.079 160.632,251.415 159.465,257.415 154.200 C 260.423 151.560,264.028 148.410,265.426 147.200 C 268.911 144.183,273.516 140.150,275.190 138.647 C 275.955 137.961,277.845 136.318,279.390 134.996 C 280.936 133.674,283.190 131.653,284.400 130.504 C 286.474 128.535,288.037 127.889,288.585 128.776 C 289.142 129.677,288.820 268.951,288.260 269.511 C 287.354 270.418,258.176 270.347,257.265 269.436 C 256.657 268.829,256.591 265.808,256.494 234.229 C 256.410 207.069,256.279 199.598,255.884 199.269 C 255.352 198.828,253.849 200.047,241.153 211.211 C 235.324 216.337,220.089 229.632,211.427 237.151 C 209.242 239.048,206.452 241.506,205.227 242.613 C 198.720 248.494,198.793 248.470,195.800 245.838 C 194.700 244.871,189.120 240.000,183.400 235.014 C 177.680 230.029,171.221 224.386,169.046 222.475 C 162.423 216.654,157.066 211.963,153.140 208.543 C 151.083 206.752,148.050 204.087,146.400 202.622 C 142.412 199.081,141.370 198.515,141.049 199.712 C 140.918 200.200,140.808 215.911,140.805 234.624 C 140.801 261.666,140.695 268.791,140.287 269.349 C 139.518 270.401,110.086 270.371,109.300 269.318 C 108.905 268.788,108.787 254.178,108.737 199.824 C 108.667 124.721,108.631 129.686,109.256 128.932 C 109.937 128.112,110.177 128.228,113.290 130.880 " stroke="none" fill="#a0a0a0" fill-rule="evenodd"></path><path id="path4" d="M109.280 128.880 C 109.016 129.144,108.800 129.538,108.800 129.756 C 108.800 129.975,109.051 129.810,109.357 129.392 C 109.986 128.531,109.787 128.429,113.500 131.516 C 114.655 132.476,115.600 133.169,115.600 133.056 C 115.600 132.759,110.411 128.400,110.057 128.400 C 109.894 128.400,109.544 128.616,109.280 128.880 M284.600 130.268 C 283.500 131.289,282.960 131.932,283.400 131.697 C 283.840 131.462,284.729 130.713,285.375 130.034 C 286.529 128.822,288.136 128.403,288.537 129.210 C 288.649 129.436,288.695 129.391,288.639 129.110 C 288.400 127.902,286.589 128.421,284.600 130.268 M119.375 136.491 C 121.149 138.191,122.731 139.586,122.891 139.591 C 123.161 139.599,121.865 138.390,117.775 134.819 C 116.881 134.039,117.601 134.791,119.375 136.491 M277.640 136.424 C 276.673 137.298,275.953 138.082,276.040 138.164 C 276.128 138.246,277.010 137.524,278.000 136.560 C 280.243 134.376,280.005 134.286,277.640 136.424 M273.200 140.457 L 271.000 142.489 273.099 140.808 C 274.939 139.334,275.913 138.373,275.524 138.413 C 275.456 138.420,274.410 139.340,273.200 140.457 M125.800 142.172 C 126.900 143.191,128.700 144.758,129.800 145.653 L 131.800 147.281 129.800 145.428 C 128.700 144.409,126.900 142.842,125.800 141.947 L 123.800 140.319 125.800 142.172 M268.386 144.700 L 266.200 147.000 268.500 144.814 C 270.637 142.782,270.983 142.400,270.686 142.400 C 270.624 142.400,269.589 143.435,268.386 144.700 M261.000 151.035 C 256.046 155.393,253.947 157.390,256.400 155.414 C 258.386 153.814,266.000 147.085,266.000 146.929 C 266.000 146.656,265.666 146.931,261.000 151.035 M133.400 148.800 C 134.259 149.680,135.052 150.400,135.162 150.400 C 135.272 150.400,134.659 149.680,133.800 148.800 C 132.941 147.920,132.148 147.200,132.038 147.200 C 131.928 147.200,132.541 147.920,133.400 148.800 M136.800 151.800 C 137.546 152.570,138.247 153.200,138.357 153.200 C 138.467 153.200,137.946 152.570,137.200 151.800 C 136.454 151.030,135.753 150.400,135.643 150.400 C 135.533 150.400,136.054 151.030,136.800 151.800 M141.241 155.661 C 142.033 156.398,143.833 157.962,145.241 159.139 C 147.522 161.045,147.583 161.075,145.800 159.410 C 144.700 158.383,142.900 156.818,141.800 155.933 C 140.372 154.783,140.212 154.706,141.241 155.661 M253.762 157.254 C 253.343 157.724,251.290 159.598,249.200 161.417 C 247.110 163.237,244.500 165.568,243.400 166.597 L 241.400 168.469 243.250 166.934 C 249.189 162.009,255.302 156.400,254.732 156.400 C 254.617 156.400,254.181 156.784,253.762 157.254 M149.200 162.600 C 149.946 163.370,150.647 164.000,150.757 164.000 C 150.867 164.000,150.346 163.370,149.600 162.600 C 148.854 161.830,148.153 161.200,148.043 161.200 C 147.933 161.200,148.454 161.830,149.200 162.600 M152.600 165.600 C 153.459 166.480,154.252 167.200,154.362 167.200 C 154.472 167.200,153.859 166.480,153.000 165.600 C 152.141 164.720,151.348 164.000,151.238 164.000 C 151.128 164.000,151.741 164.720,152.600 165.600 M156.686 169.289 C 157.519 169.997,159.415 171.636,160.900 172.930 C 162.385 174.224,163.600 175.184,163.600 175.063 C 163.600 174.772,155.771 168.000,155.434 168.000 C 155.290 168.000,155.853 168.580,156.686 169.289 M237.800 171.239 C 233.960 174.611,232.619 175.986,235.400 173.700 C 238.064 171.511,241.450 168.437,241.200 168.433 C 241.090 168.431,239.560 169.694,237.800 171.239 M165.200 176.600 C 165.946 177.370,166.647 178.000,166.757 178.000 C 166.867 178.000,166.346 177.370,165.600 176.600 C 164.854 175.830,164.153 175.200,164.043 175.200 C 163.933 175.200,164.454 175.830,165.200 176.600 M230.175 178.100 L 229.000 179.400 230.300 178.225 C 231.015 177.579,231.600 176.994,231.600 176.925 C 231.600 176.616,231.270 176.888,230.175 178.100 M168.600 179.600 C 169.459 180.480,170.252 181.200,170.362 181.200 C 170.472 181.200,169.859 180.480,169.000 179.600 C 168.141 178.720,167.348 178.000,167.238 178.000 C 167.128 178.000,167.741 178.720,168.600 179.600 M226.981 180.900 L 225.400 182.600 227.100 181.019 C 228.681 179.548,228.984 179.200,228.681 179.200 C 228.616 179.200,227.851 179.965,226.981 180.900 M222.200 185.038 L 219.400 187.668 222.300 185.176 C 224.875 182.963,225.452 182.391,225.100 182.403 C 225.045 182.405,223.740 183.591,222.200 185.038 M174.116 184.255 C 174.461 184.825,180.000 189.752,180.000 189.490 C 180.000 189.385,178.614 188.061,176.920 186.549 C 175.226 185.037,173.964 184.005,174.116 184.255 M217.381 189.277 L 215.800 190.954 217.265 189.777 C 218.487 188.795,219.478 187.600,219.069 187.600 C 219.010 187.600,218.251 188.355,217.381 189.277 M184.200 193.200 C 185.283 194.300,186.260 195.200,186.370 195.200 C 186.480 195.200,185.683 194.300,184.600 193.200 C 183.517 192.100,182.540 191.200,182.430 191.200 C 182.320 191.200,183.117 192.100,184.200 193.200 M210.968 194.709 C 209.850 195.749,207.780 197.647,206.368 198.926 L 203.800 201.253 206.379 199.126 C 209.239 196.768,213.512 192.816,213.200 192.817 C 213.090 192.817,212.086 193.668,210.968 194.709 M186.939 195.501 C 187.296 196.079,195.600 203.330,195.600 203.063 C 195.600 202.957,193.586 201.107,191.125 198.952 C 188.664 196.798,186.780 195.244,186.939 195.501 M252.936 200.662 L 250.600 202.872 252.970 200.845 C 256.680 197.672,256.386 194.918,256.498 233.949 L 256.595 268.200 256.708 234.400 C 256.842 193.968,257.145 196.680,252.936 200.662 M142.261 199.314 C 143.118 199.798,148.988 204.787,153.192 208.605 C 155.826 210.997,157.668 212.398,155.553 210.400 C 153.852 208.793,146.739 202.523,144.096 200.300 C 143.115 199.475,142.107 198.806,141.856 198.814 C 141.605 198.822,141.787 199.047,142.261 199.314 M245.785 206.900 L 243.800 209.000 245.900 207.015 C 247.851 205.171,248.183 204.800,247.885 204.800 C 247.822 204.800,246.877 205.745,245.785 206.900 M241.967 210.117 C 241.179 210.822,237.278 214.230,233.297 217.689 C 229.317 221.148,225.934 224.182,225.780 224.432 C 225.626 224.682,228.807 222.009,232.850 218.493 C 241.451 211.011,243.875 208.833,243.600 208.833 C 243.490 208.833,242.755 209.411,241.967 210.117 M160.200 214.598 C 161.740 216.065,163.900 218.002,165.000 218.903 C 167.955 221.323,165.979 219.410,161.400 215.419 C 158.456 212.851,158.139 212.635,160.200 214.598 M168.400 221.744 C 169.170 222.584,170.700 224.007,171.800 224.906 C 174.115 226.799,173.304 225.940,169.600 222.577 C 168.170 221.279,167.630 220.904,168.400 221.744 M221.191 228.431 L 218.600 230.863 221.300 228.560 C 223.742 226.478,224.226 226.000,223.891 226.000 C 223.832 226.000,222.617 227.094,221.191 228.431 M174.131 226.688 C 174.282 226.933,177.134 229.518,180.467 232.433 C 183.801 235.347,186.404 237.530,186.251 237.283 C 186.099 237.036,183.248 234.452,179.915 231.539 C 176.582 228.626,173.980 226.443,174.131 226.688 M215.600 233.084 C 214.170 234.318,211.650 236.587,210.000 238.127 C 206.809 241.105,208.310 239.900,214.563 234.465 C 217.875 231.585,218.755 230.728,218.300 230.820 C 218.245 230.832,217.030 231.850,215.600 233.084 M188.000 239.000 C 188.746 239.770,189.447 240.400,189.557 240.400 C 189.667 240.400,189.146 239.770,188.400 239.000 C 187.654 238.230,186.953 237.600,186.843 237.600 C 186.733 237.600,187.254 238.230,188.000 239.000 M190.357 240.915 C 191.023 241.757,195.600 245.758,195.600 245.498 C 195.600 245.398,194.295 244.168,192.700 242.763 C 191.105 241.359,190.051 240.528,190.357 240.915 M204.647 242.629 C 203.572 243.618,202.773 244.506,202.871 244.604 C 202.968 244.702,203.931 243.886,205.009 242.791 C 207.444 240.319,207.251 240.233,204.647 242.629 M200.851 246.050 C 199.843 246.966,199.216 247.234,198.372 247.111 C 197.751 247.019,197.333 247.092,197.445 247.272 C 197.917 248.036,199.698 247.520,201.106 246.211 C 201.928 245.447,202.510 244.822,202.400 244.823 C 202.290 244.823,201.593 245.375,200.851 246.050 M108.827 268.224 C 108.778 268.994,109.860 270.114,110.435 269.887 C 110.880 269.711,110.864 269.656,110.361 269.632 C 110.010 269.614,109.527 269.195,109.288 268.700 C 109.049 268.205,108.842 267.991,108.827 268.224 M140.218 268.745 C 140.077 269.187,139.566 269.626,139.081 269.720 L 138.200 269.891 139.086 269.946 C 139.913 269.996,141.134 268.600,140.669 268.136 C 140.561 268.028,140.358 268.302,140.218 268.745 M256.800 268.681 C 256.800 269.143,257.935 270.209,258.158 269.957 C 258.234 269.871,257.960 269.454,257.548 269.030 C 257.137 268.607,256.800 268.449,256.800 268.681 " stroke="none" fill="#848484" fill-rule="evenodd"></path></g></svg>